<svg width="19" height="18" viewBox="0 0 19 18" fill="none" xmlns="http://www.w3.org/2000/svg">
<g clip-path="url(#clip0_9_414)">
<path d="M13.5556 1.98641C13.2531 1.75825 11.8942 0.766576 9.81806 0.410373C8.89785 0.26283 7.96118 0.248986 7.03699 0.369273C7.03699 0.369273 6.93159 0.381919 6.83727 0.39562C5.58582 0.574774 3.57823 1.54063 2.56073 2.43272C0.511517 4.23112 -1.43601 9.17051 1.44733 12.8131C3.35323 15.2218 6.76455 16.2982 10.0742 15.5474C11.8878 15.7655 13.3822 14.9989 13.5993 14.884C15.7766 13.7248 16.3646 11.557 16.598 10.6955C17.1292 8.73369 16.6823 7.12025 16.4674 6.38256C16.234 5.58005 15.6059 3.53399 13.5556 1.98641Z" fill="#91FFCA"/>
<path d="M9.96426 15.573C10.4315 15.6243 10.9043 15.5844 11.3564 15.4555C11.5746 15.396 11.8022 15.3317 11.9945 15.2142C12.1976 15.0922 12.3565 14.9088 12.4482 14.6904C12.6158 14.3015 12.5319 13.8389 12.3686 13.4621C12.1874 13.0443 11.8944 12.6423 11.5066 12.3772C11.1283 12.1206 10.6635 12.1543 10.2583 12.3245C10.0995 12.3957 9.9455 12.477 9.79725 12.5679C9.725 12.6095 9.65283 12.6517 9.57856 12.6913C9.54167 12.7113 9.50478 12.7303 9.46685 12.7482L9.41887 12.7697C9.35932 12.7971 9.4642 12.7545 9.40464 12.7761C9.37096 12.7882 9.33665 12.8003 9.29928 12.8098C9.2808 12.8146 9.26239 12.8193 9.24398 12.823L9.2202 12.8277C9.17864 12.8372 9.24133 12.8208 9.24551 12.8277C9.2082 12.8268 9.1709 12.8284 9.1338 12.8325C9.09007 12.8325 9.11169 12.8235 9.14328 12.8356C9.12355 12.8297 9.10346 12.8247 9.08324 12.8208L9.05374 12.8124C9.01839 12.8035 9.00472 12.7761 9.08219 12.8256C9.06427 12.814 9.04265 12.8051 9.02369 12.7945C8.97466 12.7671 9.07641 12.8383 9.0474 12.8119C9.03687 12.8019 9.02529 12.7929 9.01476 12.7829C9.00416 12.7729 8.99579 12.7629 8.98631 12.7529C8.94098 12.7044 9.01685 12.7956 8.99259 12.7614C8.94119 12.6888 8.89454 12.6129 8.85298 12.5342C8.82397 12.4784 8.79607 12.422 8.76971 12.3656C8.75493 12.3351 8.74071 12.304 8.72704 12.2729C8.72278 12.2639 8.69649 12.2033 8.7133 12.2428C8.73018 12.2824 8.70277 12.2191 8.69859 12.2086C8.61797 12.0226 8.5405 11.835 8.46832 11.6464C8.34817 11.3418 8.23116 11.0361 8.12105 10.7285C7.84532 9.954 7.61282 9.16482 7.42447 8.36462C7.36387 8.10911 7.30593 7.85249 7.2553 7.59482C7.24581 7.5458 7.23689 7.49678 7.22789 7.44782C7.22427 7.42411 7.22001 7.39985 7.21632 7.37614L7.21158 7.34664C7.20579 7.31024 7.20739 7.34664 7.21158 7.36031C7.20105 7.32174 7.19665 7.28172 7.1984 7.24177C7.1984 7.20752 7.19365 7.17274 7.19365 7.13638C7.19365 7.10002 7.19365 7.08 7.19365 7.05155C7.19616 7.0378 7.19756 7.02388 7.19791 7.00992C7.19791 7.00571 7.18577 7.07579 7.19261 7.05155C7.19261 7.04312 7.19582 7.03311 7.19791 7.02468C7.20265 7.00219 7.20886 6.98002 7.21632 6.95828C7.22001 6.9488 7.22427 6.93932 7.2274 6.9293C7.2274 6.9293 7.19526 6.99095 7.22162 6.94563C7.23319 6.92614 7.24372 6.90665 7.25634 6.88768C7.26904 6.8687 7.30592 6.83077 7.28005 6.85342C7.25425 6.87608 7.30746 6.82708 7.31485 6.8197C7.32224 6.81232 7.3433 6.79704 7.35544 6.78439C7.37705 6.76174 7.33382 6.80179 7.33486 6.7981C7.34393 6.79028 7.35383 6.78356 7.36436 6.77808C7.39937 6.75576 7.43577 6.73587 7.4735 6.71853C7.48138 6.71484 7.48981 6.71168 7.49769 6.70746C7.5304 6.69113 7.44763 6.72433 7.48242 6.71379C7.50034 6.70905 7.51722 6.70167 7.53514 6.69587C7.57935 6.68165 7.62468 6.66953 7.67001 6.65951C7.75536 6.64002 7.84176 6.62579 7.92823 6.61315C8.10982 6.59249 8.29022 6.56277 8.46881 6.5241C8.86616 6.42714 9.20123 6.19424 9.36775 5.83013C9.69606 5.11246 9.4953 4.16557 8.90674 3.6202C8.26226 3.0232 7.16206 2.97208 6.40276 3.39626C5.81945 3.72243 5.4643 4.30468 5.23403 4.89326C4.96425 5.58301 4.85464 6.33071 4.80828 7.06261C4.76318 7.8011 4.78894 8.54216 4.88521 9.2757C4.93052 9.62555 4.99059 9.97339 5.06595 10.3185C5.15666 10.731 5.26816 11.1386 5.40001 11.5399C5.57941 12.0882 5.80012 12.6221 6.06026 13.137C6.34808 13.7095 6.69985 14.2477 7.10886 14.741C7.54044 15.2631 8.05382 15.7119 8.62899 16.0699C9.35869 16.5159 10.1804 16.7898 11.0318 16.8708C11.912 16.9478 12.7986 16.84 13.6349 16.5547C14.1694 16.3825 14.6762 16.134 15.1397 15.817C15.8059 15.35 16.3683 14.7502 16.7917 14.0555C17.1131 13.5197 17.3679 12.9468 17.5504 12.3493C17.7807 11.6147 17.9361 10.8607 17.9609 10.0919C17.9802 9.30624 17.8872 8.5218 17.6848 7.76239C17.5687 7.29866 17.4237 6.84267 17.2506 6.3971C16.9827 5.71265 16.6272 5.06581 16.1931 4.47277C15.6982 3.8035 15.103 3.21466 14.4284 2.72707C13.9596 2.39282 13.4574 2.10815 12.9298 1.87765C12.1647 1.53402 11.3557 1.29782 10.526 1.17579C9.67445 1.05587 8.81107 1.04648 7.95717 1.14787C7.45746 1.20523 6.96177 1.29322 6.47284 1.41133C5.65712 1.60347 4.86969 1.9003 4.13012 2.29446C3.4173 2.6788 2.78495 3.19648 2.26744 3.81938C1.78361 4.41198 1.39371 5.07539 1.11136 5.7864C0.824784 6.50754 0.636563 7.26393 0.551763 8.03533C0.462647 8.8264 0.478061 9.62576 0.597607 10.4128C0.71602 11.202 0.946694 11.9701 1.28261 12.6939C1.64613 13.4773 2.14164 14.1924 2.74747 14.8079C3.3515 15.4144 4.04446 15.9252 4.80248 16.3228C5.33327 16.6018 5.88764 16.8336 6.45914 17.0152C6.52828 17.0338 6.60194 17.0252 6.6649 16.9911C6.72786 16.9569 6.7753 16.8999 6.79742 16.8318C6.81415 16.7638 6.80354 16.6919 6.76788 16.6317C6.73221 16.5714 6.67434 16.5275 6.60667 16.5094C6.49233 16.4725 6.37799 16.434 6.26523 16.3935C6.20095 16.3702 6.13719 16.3465 6.07343 16.3223L5.977 16.2849C5.96172 16.2791 5.94697 16.2723 5.93116 16.267C5.98701 16.2859 5.9496 16.2744 5.92009 16.2622C5.60931 16.1348 5.30555 15.991 5.01009 15.8312C4.66621 15.6455 4.33541 15.4365 4.02 15.2057L4.00155 15.192L3.93674 15.1425C3.893 15.1093 3.85033 15.0756 3.80712 15.0413C3.72351 14.9739 3.64096 14.9048 3.55946 14.8343C3.39155 14.6878 3.23013 14.5343 3.07522 14.3737C2.99829 14.2936 2.92346 14.2114 2.85022 14.1281C2.81333 14.086 2.77645 14.0428 2.74009 13.9996C2.72059 13.9764 2.7011 13.9527 2.68213 13.929C2.70531 13.958 2.65789 13.8989 2.65052 13.889C2.52194 13.7261 2.40128 13.5575 2.28746 13.3847C2.07594 13.0615 1.8899 12.7224 1.73103 12.3704C1.72312 12.3524 1.69888 12.2966 1.71996 12.3456L1.69414 12.2865C1.67464 12.2407 1.65567 12.1949 1.63671 12.1485C1.60157 12.0596 1.56645 11.9701 1.53132 11.8798C1.46598 11.6996 1.40697 11.5167 1.3548 11.3329C1.30264 11.1489 1.25626 10.964 1.21727 10.7753C1.19725 10.6815 1.17933 10.5877 1.16458 10.4935C1.15668 10.4481 1.1493 10.4028 1.14192 10.3569C1.13876 10.3359 1.13507 10.3154 1.13191 10.2942C1.12875 10.2732 1.1277 10.2663 1.12611 10.2521C1.12453 10.2379 1.11821 10.1994 1.12611 10.2342C1.13402 10.269 1.1219 10.2052 1.12085 10.1957L1.11136 10.1219C1.10556 10.073 1.09977 10.0234 1.0945 9.97443C1.08449 9.87959 1.07606 9.7842 1.0692 9.6888C1.05551 9.49912 1.04813 9.3084 1.04655 9.11817C1.04381 8.73881 1.06563 8.35967 1.11189 7.98317C1.11716 7.93833 1.12348 7.89356 1.12928 7.84824C1.12295 7.89566 1.12928 7.85988 1.12928 7.83506C1.12928 7.8103 1.13718 7.78241 1.14192 7.75235C1.15562 7.6633 1.17143 7.57425 1.18776 7.4852C1.22289 7.30187 1.26364 7.1197 1.31001 6.93879C1.4007 6.58121 1.51549 6.23018 1.65357 5.88809C1.6699 5.84752 1.68729 5.80695 1.70626 5.76637C1.71522 5.74477 1.7247 5.72317 1.73419 5.70156C1.71311 5.75056 1.73419 5.70156 1.74367 5.68101C1.78161 5.59882 1.8206 5.51661 1.86117 5.43546C1.94127 5.27422 2.02751 5.11615 2.11989 4.96123C2.21106 4.80842 2.30854 4.65825 2.41129 4.51229C2.46223 4.43992 2.51492 4.36861 2.56937 4.29836L2.64788 4.19824C2.68002 4.15819 2.62206 4.22986 2.65473 4.19034L2.70478 4.13027C2.9301 3.86172 3.17872 3.61362 3.44775 3.38888C3.52416 3.32513 3.60267 3.26453 3.68171 3.20446C3.70595 3.18549 3.68171 3.20446 3.67591 3.20815L3.70595 3.18601L3.77708 3.13596C3.8245 3.10294 3.87245 3.07027 3.92093 3.03795C4.10536 2.91676 4.29575 2.80435 4.49212 2.70072C4.68287 2.59955 4.87783 2.50681 5.07648 2.42092L5.20663 2.36823L5.24984 2.35084L5.23772 2.35558L5.31307 2.32607C5.41213 2.28743 5.51172 2.25054 5.61184 2.21542C5.96042 2.09379 6.31497 1.99002 6.67412 1.90453C6.95094 1.83814 7.23019 1.78176 7.51192 1.73539C7.60676 1.7201 7.70215 1.70536 7.79804 1.69271L7.85076 1.68533H7.87286C7.92293 1.67848 7.80487 1.69376 7.83339 1.69007C7.90606 1.68112 7.97879 1.67216 8.05152 1.66425C8.54141 1.61123 9.0345 1.59362 9.52689 1.61156C9.71099 1.61859 9.89467 1.63088 10.0781 1.64845C10.1513 1.65529 10.224 1.66372 10.2968 1.67216C10.3415 1.67743 10.3115 1.67216 10.2809 1.67216L10.3279 1.67848L10.4127 1.69007C10.7863 1.74609 11.1559 1.82618 11.5192 1.92982C11.7352 1.9913 11.9483 2.0605 12.1584 2.13744L12.3038 2.19013L12.3808 2.22016C12.3845 2.22016 12.4208 2.23597 12.3907 2.22437L12.4224 2.23702C12.5114 2.27391 12.6005 2.31185 12.6885 2.35137C13.2016 2.57701 13.6906 2.854 14.148 3.17811L14.1897 3.20867L14.1596 3.18654L14.1775 3.19972C14.245 3.25241 14.3114 3.30141 14.3768 3.35411C14.5633 3.5034 14.7422 3.66148 14.9136 3.82834C15.0756 3.98431 15.23 4.14678 15.3768 4.31575C15.412 4.35544 15.4457 4.39496 15.478 4.4343L15.5233 4.487L15.5392 4.50649L15.5544 4.52546C15.6187 4.60661 15.6819 4.68934 15.7425 4.77259C15.9671 5.07997 16.1696 5.4029 16.3485 5.73897C16.4275 5.88827 16.5022 6.03932 16.5724 6.19213L16.5946 6.24061C16.5977 6.24852 16.6014 6.25695 16.6051 6.26485C16.6198 6.29752 16.5845 6.21743 16.5988 6.25009L16.6462 6.35969C16.6746 6.42767 16.7026 6.49617 16.7295 6.56467C16.8965 6.99485 17.0373 7.43478 17.151 7.88199C17.1895 8.02955 17.2248 8.17703 17.2564 8.3262C17.2738 8.40995 17.2901 8.49425 17.3049 8.57856C17.3128 8.62124 17.3196 8.66392 17.327 8.70715L17.3381 8.77779C17.3381 8.78832 17.3407 8.7983 17.3423 8.80883C17.3439 8.81936 17.3502 8.86154 17.3423 8.8257C17.3344 8.78986 17.3476 8.86684 17.3491 8.87521L17.3571 8.93902C17.3633 8.99167 17.3691 9.04125 17.3739 9.09236C17.3845 9.19453 17.3928 9.2971 17.3992 9.40003C17.4129 9.62067 17.4165 9.8418 17.4103 10.0635C17.4036 10.3037 17.3848 10.5433 17.3538 10.7822C17.3538 10.7964 17.3502 10.8101 17.3481 10.8238C17.3481 10.8175 17.3528 10.7922 17.3481 10.8238C17.3433 10.8555 17.3381 10.8891 17.3328 10.9218C17.3223 10.9882 17.3112 11.0541 17.2985 11.12C17.2738 11.2506 17.2458 11.3834 17.2137 11.5098C17.1573 11.7396 17.0925 11.9683 17.0219 12.1949C16.9428 12.4483 16.8527 12.6986 16.7495 12.9442L16.7068 13.0438C16.6926 13.0759 16.7284 12.9952 16.7136 13.0274C16.71 13.0353 16.7068 13.0432 16.7031 13.0506C16.6952 13.069 16.6868 13.0875 16.6783 13.1033C16.6454 13.1736 16.6111 13.2447 16.5756 13.3167C16.5008 13.4653 16.4203 13.6109 16.3343 13.7535C16.2436 13.9035 16.1463 14.0502 16.0424 14.1935C16.0166 14.2288 15.9896 14.2636 15.9633 14.2989C15.9491 14.3179 15.9343 14.3369 15.9196 14.3553L15.9006 14.3795C15.8969 14.3843 15.8684 14.4201 15.8901 14.3932C15.9117 14.3664 15.8901 14.3932 15.8853 14.3985L15.859 14.4307C15.8458 14.4464 15.8321 14.4622 15.8189 14.4786L15.722 14.5892C15.5911 14.7343 15.4527 14.8723 15.3073 15.0029C15.2314 15.0703 15.1538 15.1357 15.0744 15.1989C15.0354 15.2299 14.9959 15.2606 14.9563 15.2905C14.9502 15.2958 14.9437 15.3005 14.9369 15.3048L14.8604 15.3575C14.6318 15.5173 14.3906 15.6583 14.1391 15.779C14.0427 15.8254 13.9452 15.8681 13.8466 15.9087L13.8066 15.925L13.8308 15.9155L13.8098 15.9234C13.7755 15.9371 13.7413 15.9503 13.7044 15.9629C13.6316 15.9903 13.5584 16.0156 13.4847 16.0409C13.1226 16.1619 12.7508 16.2512 12.3734 16.308L12.3022 16.3181C12.2495 16.326 12.3344 16.3149 12.2796 16.3212C12.2248 16.3276 12.1652 16.3344 12.1078 16.3397C11.9898 16.3506 11.8713 16.358 11.7527 16.3618C11.5153 16.3699 11.2777 16.3627 11.0413 16.3402L10.9443 16.3302L10.9059 16.3255C10.84 16.3165 10.7742 16.3065 10.7088 16.2949C10.5786 16.2728 10.4501 16.2449 10.3226 16.2127C10.1311 16.164 9.94257 16.1047 9.75771 16.0351L9.69397 16.0103C9.66657 15.9998 9.64495 15.9903 9.68707 16.0103L9.56273 15.9577C9.48372 15.9225 9.40569 15.886 9.32877 15.8481C9.17738 15.7725 9.03003 15.6905 8.88666 15.602C8.81644 15.5577 8.74705 15.5122 8.67857 15.4655C8.64538 15.4434 8.61323 15.4202 8.58108 15.3975C8.56365 15.3849 8.5458 15.3733 8.52837 15.3596C8.57 15.3933 8.54106 15.3691 8.51839 15.3517C8.38876 15.2537 8.26351 15.1502 8.14267 15.0413C7.9055 14.8281 7.68458 14.5973 7.48193 14.3511L7.44818 14.3105L7.46401 14.33C7.45592 14.3214 7.44853 14.3122 7.44184 14.3026C7.41659 14.271 7.39177 14.2388 7.36701 14.2067C7.3191 14.145 7.27273 14.0823 7.22685 14.0191C7.13626 13.8937 7.04965 13.766 6.96709 13.636C6.80691 13.3842 6.66007 13.1254 6.52658 12.8599C6.46124 12.7303 6.39854 12.6001 6.339 12.4683C6.33162 12.4515 6.32424 12.4347 6.31634 12.4157C6.29474 12.3677 6.3253 12.4362 6.31634 12.4209C6.30159 12.3872 6.28683 12.354 6.2726 12.3208C6.24573 12.257 6.21991 12.1933 6.19304 12.129C6.09503 11.8873 6.00545 11.6425 5.9243 11.3945C5.79421 10.9989 5.68412 10.5971 5.59445 10.1905C5.56494 10.0582 5.53807 9.92701 5.5133 9.79159C5.50487 9.74675 5.49697 9.70198 5.48906 9.6577C5.4801 9.60505 5.47115 9.55233 5.46272 9.49968C5.45639 9.46063 5.4506 9.42165 5.4448 9.38267C5.44217 9.36426 5.43848 9.34578 5.4369 9.32737C5.4427 9.38901 5.4369 9.33106 5.43374 9.3047C5.33778 8.58881 5.30885 7.86553 5.34732 7.14429C5.35681 6.95934 5.37209 6.77544 5.39211 6.59049C5.39738 6.54675 5.40212 6.50302 5.40792 6.45876C5.41055 6.43557 5.41372 6.41186 5.41688 6.38867C5.41688 6.37867 5.42003 6.36865 5.42109 6.35864C5.42109 6.37761 5.41477 6.40079 5.42109 6.36812C5.43427 6.27907 5.44796 6.19002 5.4643 6.1015C5.52304 5.76269 5.61119 5.42964 5.72776 5.10614C5.75569 5.03026 5.78625 4.95596 5.81787 4.88166C5.79732 4.92487 5.83737 4.8353 5.81787 4.88166C5.82682 4.86322 5.83525 4.84426 5.84368 4.82581C5.86108 4.78945 5.87899 4.75362 5.89638 4.71779C5.96452 4.58479 6.04255 4.45709 6.12981 4.33577C6.15036 4.30732 6.17143 4.27991 6.19251 4.25251C6.22202 4.21458 6.15826 4.29256 6.18988 4.2562C6.20357 4.24039 6.21675 4.22406 6.23045 4.20878C6.27654 4.15629 6.32525 4.10617 6.37641 4.0586C6.40065 4.03595 6.42541 4.01381 6.45124 3.99274C6.46336 3.9822 6.53343 3.94005 6.53449 3.92635C6.53449 3.94057 6.48179 3.96165 6.52764 3.93214L6.57137 3.90264C6.60088 3.88331 6.63091 3.86575 6.66148 3.84995C6.72276 3.81588 6.78572 3.78493 6.85011 3.75721C6.80638 3.7767 6.83958 3.76142 6.86329 3.75299L6.93442 3.72875C6.9834 3.71347 7.03299 3.69977 7.08354 3.68765C7.1341 3.67553 7.17894 3.6671 7.2274 3.6592C7.25007 3.65551 7.29435 3.64971 7.24477 3.65551C7.27531 3.65182 7.30593 3.64866 7.33703 3.64655C7.43814 3.63821 7.53974 3.63698 7.64107 3.64286C7.6684 3.64286 7.69581 3.64497 7.72321 3.64918L7.75857 3.65287C7.75487 3.65287 7.71164 3.64602 7.74379 3.65287C7.80229 3.66235 7.86024 3.67184 7.9177 3.68554C7.96352 3.69608 8.00884 3.70873 8.05361 3.72295C8.07997 3.73138 8.10578 3.74034 8.13109 3.74983L8.16428 3.76195C8.13953 3.75193 8.14002 3.75246 8.16428 3.76195C8.2101 3.78302 8.25598 3.80516 8.29971 3.82992C8.32342 3.84362 8.34713 3.85732 8.36979 3.87207L8.39929 3.89157C8.40347 3.89157 8.44301 3.92266 8.4193 3.90474C8.39559 3.88683 8.45145 3.93109 8.45989 3.93794C8.46832 3.94479 8.49099 3.96429 8.5057 3.97798C8.54043 4.00963 8.57348 4.04305 8.60479 4.0781C8.61372 4.08759 8.65744 4.13765 8.63589 4.11288C8.61428 4.08812 8.65165 4.13396 8.65744 4.14186C8.68541 4.17927 8.71016 4.21827 8.73596 4.25831C8.76184 4.29836 8.78024 4.33366 8.80026 4.37213C8.81135 4.3932 8.81978 4.41534 8.83136 4.43589C8.84294 4.45644 8.82501 4.42113 8.82453 4.41903C8.82927 4.43115 8.83506 4.44379 8.8398 4.45591C8.87397 4.53965 8.90193 4.62577 8.92355 4.71358C8.93338 4.75573 8.94238 4.79788 8.95047 4.84004C8.95047 4.85005 8.95305 4.86006 8.95521 4.86954C8.96309 4.90696 8.94991 4.82054 8.95521 4.85848C8.95521 4.88114 8.961 4.90433 8.96309 4.92698C8.97097 5.0137 8.97257 5.10086 8.96783 5.18781C8.97027 5.22888 8.9665 5.27008 8.95674 5.31005C8.95674 5.31005 8.96623 5.25736 8.95995 5.28634C8.9573 5.29846 8.9557 5.31058 8.9536 5.3227C8.94942 5.34378 8.94517 5.36433 8.94042 5.38541C8.9315 5.42334 8.92146 5.46129 8.90932 5.49817C8.90305 5.51819 8.89614 5.53769 8.88882 5.55666L8.87934 5.58142C8.87508 5.59301 8.85563 5.61831 8.87613 5.59038C8.8967 5.56246 8.86511 5.61093 8.85981 5.62094C8.85451 5.63096 8.84398 5.65098 8.83506 5.66573C8.81553 5.69999 8.79287 5.7316 8.7702 5.76374C8.74761 5.79588 8.80451 5.72791 8.7702 5.76374C8.7534 5.78061 8.73812 5.79852 8.72069 5.81644C8.70333 5.83435 8.68645 5.84699 8.66804 5.8628C8.6633 5.86702 8.63799 5.88968 8.66483 5.86597C8.69175 5.84225 8.6596 5.86966 8.6527 5.87387C8.6179 5.89687 8.58185 5.91798 8.54468 5.9371L8.49203 5.96134C8.44566 5.98294 8.50047 5.96134 8.50417 5.95659C8.49273 5.96287 8.48046 5.96749 8.46777 5.9703C8.29734 6.02374 8.12209 6.06045 7.94455 6.0799C7.57573 6.13259 7.18738 6.18528 6.91493 6.44874C6.69467 6.6632 6.61774 6.93984 6.64198 7.23334C6.67887 7.69071 6.80006 8.14705 6.90861 8.59279C7.09421 9.36754 7.32162 10.1317 7.58995 10.8817C7.69532 11.1822 7.81178 11.4803 7.92872 11.7775C8.05891 12.1074 8.1896 12.4409 8.35026 12.7577C8.42613 12.9062 8.51574 13.0675 8.64956 13.1766C8.73262 13.2438 8.82836 13.2938 8.93115 13.3232C9.03387 13.3526 9.14154 13.361 9.2476 13.3478C9.6128 13.3093 9.91475 13.1075 10.223 12.9331C10.2972 12.8915 10.3726 12.8504 10.4495 12.814L10.5097 12.7866C10.518 12.7829 10.527 12.7798 10.5355 12.7756C10.5639 12.7624 10.5128 12.7851 10.5133 12.7845C10.5516 12.7637 10.5931 12.7496 10.6361 12.7429C10.674 12.7318 10.713 12.7223 10.752 12.715L10.7789 12.7102C10.8315 12.7008 10.761 12.7144 10.7604 12.7102L10.8247 12.706C10.8363 12.706 10.9417 12.6986 10.9465 12.7097C10.9465 12.7097 10.889 12.6992 10.9206 12.706L10.9585 12.7128C10.9818 12.7171 11.0039 12.7223 11.0265 12.7287C11.0492 12.735 11.0792 12.7445 11.1019 12.7529L11.0945 12.7503L11.1277 12.7661C11.1525 12.7787 11.1762 12.7919 11.1999 12.8066C11.2094 12.813 11.2188 12.8198 11.2289 12.8256C11.1994 12.8003 11.2631 12.8457 11.2289 12.8256C11.3113 12.8955 11.3901 12.9694 11.4649 13.0475C11.4972 13.0808 11.5283 13.116 11.5582 13.1528L11.5793 13.1781C11.5472 13.1365 11.573 13.1702 11.5793 13.1781C11.5951 13.1987 11.6109 13.2192 11.6257 13.2403C11.6853 13.3231 11.7395 13.4097 11.7879 13.4996C11.8117 13.5433 11.8327 13.5881 11.8543 13.6329C11.8675 13.6602 11.8512 13.6255 11.8496 13.6223L11.867 13.6639C11.8771 13.6889 11.8866 13.7136 11.8954 13.7383C11.9296 13.8322 11.9561 13.9288 11.9745 14.027C11.9792 14.0496 11.984 14.0897 11.9782 14.0423C11.9813 14.0671 11.984 14.0913 11.9861 14.1161C11.9898 14.1646 11.9908 14.2134 11.9892 14.262C11.9892 14.2825 11.9866 14.3026 11.985 14.3231C11.985 14.3321 11.9797 14.3758 11.985 14.3384C11.9903 14.301 11.985 14.3384 11.985 14.3431C11.9767 14.3887 11.9653 14.4336 11.9508 14.4775C11.9444 14.496 11.937 14.5138 11.9302 14.5302C11.9523 14.4696 11.9276 14.5302 11.9197 14.5476C11.8985 14.5856 11.8743 14.6219 11.8475 14.6562C11.876 14.6198 11.8512 14.6498 11.8354 14.6661C11.8195 14.6825 11.8006 14.6989 11.7826 14.7152C11.7753 14.722 11.7663 14.7278 11.7589 14.7347C11.7589 14.7347 11.799 14.7094 11.7732 14.7241C11.7474 14.7389 11.7331 14.7515 11.7126 14.7636C11.6727 14.7873 11.6316 14.8085 11.5893 14.8274L11.5593 14.8406C11.5593 14.8406 11.603 14.8242 11.573 14.8348C11.5429 14.8453 11.5229 14.8537 11.4976 14.8622C11.3965 14.897 11.2932 14.9259 11.1894 14.9539C11.0708 14.986 10.9523 15.0155 10.8311 15.0366C10.7979 15.0424 10.7652 15.0471 10.732 15.0518C10.7736 15.0461 10.7072 15.0545 10.6951 15.0555C10.6387 15.0619 10.5818 15.0661 10.5249 15.0687C10.3392 15.0774 10.153 15.0705 9.96844 15.0481C9.82514 15.0313 9.68762 15.181 9.69341 15.3117C9.7008 15.4697 9.8151 15.5556 9.96844 15.5751L9.96426 15.573Z" fill="#12141D"/>
</g>
<defs>
<clipPath id="clip0_9_414">
<rect width="18.1309" height="16.7362" fill="white" transform="translate(-0.00915527 0.28833)"/>
</clipPath>
</defs>
</svg>
