<svg width="99" height="151" viewBox="0 0 99 151" fill="none" xmlns="http://www.w3.org/2000/svg">
<mask id="mask0_9_517" style="mask-type:alpha" maskUnits="userSpaceOnUse" x="0" y="0" width="100" height="151">
<path fill-rule="evenodd" clip-rule="evenodd" d="M54.6753 150.124C48.1462 151.606 42.5852 142.378 36.0856 140.561C25.2081 137.519 11.0311 149.835 3.6944 135.869C-3.00008 123.126 2.72455 101.049 7.37611 85.9106C11.3635 72.9337 20.2688 67.5692 27.2908 59.0755C31.6573 53.7938 37.3488 52.2138 40.8869 45.3759C46.9087 33.7387 46.6658 13.5752 54.6753 6.15378C62.5641 -1.15576 73.9713 -1.10322 81.1549 8.06462C88.4611 17.3889 86.7628 36.7759 90.026 51.269C92.7097 63.1884 100.693 73.6154 98.6819 85.9106C96.5401 99.0061 85.9726 101.459 80.2602 110.982C76.3783 117.454 74.6415 126.543 70.5997 132.726C65.8296 140.025 61.0407 148.679 54.6753 150.124Z" fill="#C4C4C4"/>
</mask>
<g mask="url(#mask0_9_517)">
<path fill-rule="evenodd" clip-rule="evenodd" d="M48.6357 139.885C42.1059 141.366 36.544 132.141 30.0436 130.323C19.1646 127.282 4.98566 139.595 -2.35206 125.633C-9.04744 112.893 -3.32205 90.8215 1.33017 75.6869C5.31809 62.7131 14.2246 57.3499 21.2476 48.8581C25.6147 43.5777 31.3069 41.9981 34.8457 35.1619C40.8684 23.5275 40.6251 3.36894 48.6357 -4.05064C56.5253 -11.3584 67.9344 -11.3059 75.1192 -2.14029C82.4261 7.18173 80.7275 26.564 83.9911 41.0535C86.6751 52.9701 94.6592 63.3944 92.6481 75.6869C90.5063 88.7792 79.9373 91.2312 74.2241 100.752C70.3418 107.222 68.6047 116.309 64.5625 122.491C59.7916 129.787 55.0023 138.44 48.6357 139.885Z" stroke="#F9F9F9" stroke-width="3.1725"/>
<path fill-rule="evenodd" clip-rule="evenodd" d="M41.6386 116.864C35.9541 118.154 31.1124 110.123 25.4536 108.542C15.9831 105.895 3.63996 116.612 -2.74774 104.458C-8.57625 93.3678 -3.59213 74.1556 0.457748 60.9813C3.92935 49.6882 11.6827 45.0196 17.7964 37.6278C21.5981 33.0313 26.5534 31.6562 29.6339 25.7055C34.8767 15.578 34.6651 -1.96955 41.6386 -8.42813C48.507 -14.7894 58.4388 -14.7436 64.6932 -6.76523C71.0543 1.3494 69.5755 18.2212 72.4163 30.834C74.753 41.2071 81.7033 50.2812 79.9527 60.9813C78.088 72.3781 68.8876 74.5124 63.9138 82.8006C60.5341 88.4318 59.0218 96.3423 55.5035 101.723C51.3498 108.075 47.1808 115.607 41.6386 116.864Z" stroke="#F9F9F9" stroke-width="3.1725"/>
<path fill-rule="evenodd" clip-rule="evenodd" d="M32.3687 97.252C27.3183 98.4007 23.0167 91.2489 17.9891 89.8399C9.57501 87.4825 -1.3913 97.0276 -7.06646 86.2033C-12.2449 76.3269 -7.81668 59.2164 -4.21855 47.4835C-1.13419 37.4259 5.75432 33.2682 11.1861 26.685C14.5637 22.5914 18.9662 21.3668 21.7031 16.0672C26.3611 7.0477 26.1731 -8.57993 32.3687 -14.3319C38.4709 -19.9971 47.2949 -19.9564 52.8517 -12.8509C58.503 -5.62417 57.1895 9.40173 59.7136 20.6346C61.7893 29.8728 67.9645 37.9541 66.4091 47.4835C64.7524 57.6332 56.5784 59.5341 52.1592 66.9155C49.1569 71.931 47.813 78.9759 44.687 83.7677C40.9968 89.4244 37.2926 96.132 32.3687 97.252Z" stroke="#F9F9F9" stroke-width="3.1725"/>
</g>
</svg>
