<svg width="256" height="229" viewBox="0 0 256 229" fill="none" xmlns="http://www.w3.org/2000/svg">
<mask id="mask0_2_52" style="mask-type:alpha" maskUnits="userSpaceOnUse" x="0" y="0" width="256" height="229">
<path fill-rule="evenodd" clip-rule="evenodd" d="M140.604 228.754C123.615 231.026 109.145 216.879 92.233 214.093C63.9292 209.43 27.0402 228.31 7.9497 206.9C-9.4696 187.364 5.42612 153.52 17.5297 130.312C27.9051 110.418 51.077 102.194 69.3486 89.1728C80.7104 81.0758 95.5199 78.6535 104.726 68.1708C120.395 50.3304 119.763 19.419 140.604 8.04168C161.131 -3.16413 190.813 -3.0836 209.505 10.9711C228.516 25.2656 224.097 54.9866 232.588 77.2051C239.571 95.4781 260.343 111.463 255.111 130.312C249.538 150.388 222.041 154.148 207.177 168.748C197.076 178.669 192.557 192.603 182.04 202.082C169.628 213.271 157.167 226.539 140.604 228.754Z" fill="#C4C4C4"/>
</mask>
<g mask="url(#mask0_2_52)">
<path fill-rule="evenodd" clip-rule="evenodd" d="M124.889 213.057C107.898 215.328 93.4258 201.185 76.5115 198.399C48.2039 193.737 11.3098 212.613 -7.78328 191.208C-25.2049 171.677 -10.3072 137.841 1.79803 114.639C12.1748 94.7497 35.3499 86.5277 53.624 73.5095C64.9874 65.4144 79.7988 62.9928 89.0068 52.5126C104.678 34.6766 104.045 3.77273 124.889 -7.60179C145.418 -18.8048 175.105 -18.7243 193.8 -4.67314C212.813 9.61789 208.393 39.3317 216.885 61.5447C223.869 79.8133 244.644 95.7942 239.411 114.639C233.838 134.71 206.337 138.469 191.471 153.065C181.369 162.983 176.849 176.915 166.331 186.391C153.917 197.577 141.455 210.842 124.889 213.057Z" stroke="#F9F9F9" stroke-width="4.30886"/>
<path fill-rule="evenodd" clip-rule="evenodd" d="M106.682 177.766C91.8908 179.743 79.2925 167.431 64.5681 165.007C39.9255 160.949 7.80814 177.379 -8.8129 158.747C-23.9789 141.745 -11.01 112.292 -0.472095 92.0952C8.56115 74.7824 28.7357 67.6253 44.6439 56.2933C54.536 49.2467 67.4298 47.1387 75.4456 38.016C89.0875 22.4901 88.5369 -4.41091 106.682 -14.3122C124.554 -24.0642 150.397 -23.9941 166.671 -11.7629C183.223 0.677169 179.375 26.5423 186.767 45.8782C192.847 61.7806 210.932 75.6915 206.377 92.0952C201.525 109.567 177.585 112.839 164.643 125.545C155.849 134.178 151.914 146.305 142.759 154.554C131.951 164.291 121.103 175.838 106.682 177.766Z" stroke="#F9F9F9" stroke-width="4.30886"/>
<path fill-rule="evenodd" clip-rule="evenodd" d="M82.5615 147.699C69.4202 149.46 58.2271 138.496 45.1452 136.336C23.2514 132.722 -5.28343 147.355 -20.0504 130.761C-33.5248 115.62 -22.0025 89.3889 -12.64 71.4019C-4.61441 55.9833 13.3098 49.6093 27.4435 39.517C36.2321 33.2414 47.6877 31.3641 54.8093 23.2395C66.9296 9.41224 66.4403 -14.5455 82.5615 -23.3635C98.4396 -32.0485 121.4 -31.9861 135.859 -21.0931C150.564 -10.0142 147.146 13.0211 153.714 30.2415C159.115 44.404 175.183 56.793 171.136 71.4019C166.825 86.9619 145.556 89.876 134.057 101.192C126.245 108.881 122.748 119.681 114.614 127.027C105.012 135.699 95.3738 145.982 82.5615 147.699Z" stroke="#F9F9F9" stroke-width="4.30886"/>
</g>
</svg>
