<svg width="181" height="162" viewBox="0 0 181 162" fill="none" xmlns="http://www.w3.org/2000/svg">
<mask id="mask0_9_439" style="mask-type:alpha" maskUnits="userSpaceOnUse" x="0" y="0" width="181" height="162">
<path fill-rule="evenodd" clip-rule="evenodd" d="M99.1471 161.593C87.1744 163.194 76.9769 153.224 65.0583 151.26C45.1116 147.974 19.1146 161.28 5.66091 146.191C-6.61509 132.424 3.88245 108.573 12.4122 92.217C19.7242 78.197 36.0542 72.4013 48.9309 63.2248C56.9379 57.5186 67.3747 55.8115 73.8626 48.4239C84.9051 35.8512 84.4597 14.0668 99.1471 6.04884C113.613 -1.84829 134.531 -1.79153 147.704 8.1133C161.102 18.1871 157.988 39.1326 163.971 54.7907C168.893 67.6684 183.531 78.9335 179.844 92.217C175.917 106.365 156.539 109.015 146.063 119.304C138.945 126.296 135.76 136.116 128.349 142.796C119.601 150.681 110.82 160.032 99.1471 161.593Z" fill="#C4C4C4"/>
</mask>
<g mask="url(#mask0_9_439)">
<path fill-rule="evenodd" clip-rule="evenodd" d="M88.0722 150.53C76.0981 152.131 65.8989 142.164 53.9788 140.2C34.0295 136.915 8.02889 150.217 -5.42665 135.133C-17.7043 121.368 -7.20537 97.5229 1.32564 81.1716C8.63849 67.1549 24.9708 61.3606 37.8492 52.1862C45.8574 46.4813 56.2955 44.7747 62.7847 37.389C73.8288 24.8193 73.3827 3.04028 88.0722 -4.97575C102.54 -12.8709 123.461 -12.8142 136.636 -2.91183C150.035 7.15957 146.92 28.0999 152.905 43.7542C157.827 56.6287 172.468 67.891 168.78 81.1716C164.852 95.3164 145.472 97.9655 134.995 108.252C127.876 115.241 124.69 125.06 117.278 131.738C108.529 139.621 99.7469 148.969 88.0722 150.53Z" stroke="#F9F9F9" stroke-width="3.03661"/>
<path fill-rule="evenodd" clip-rule="evenodd" d="M75.2411 125.66C64.8171 127.053 55.9387 118.376 45.5619 116.668C28.1954 113.808 5.56114 125.387 -6.15229 112.256C-16.8403 100.274 -7.7007 79.5177 -0.274236 65.2843C6.09181 53.0834 20.3095 48.0395 31.5206 40.0535C38.4919 35.0875 47.5786 33.6019 53.2276 27.1728C62.8416 16.2312 62.4535 -2.72695 75.2411 -9.70472C87.8361 -16.5773 106.049 -16.5279 117.517 -7.90814C129.182 0.858802 126.47 19.0869 131.68 32.7136C135.965 43.9206 148.71 53.7241 145.5 65.2843C142.08 77.5973 125.209 79.9032 116.088 88.8576C109.891 94.9416 107.118 103.488 100.666 109.301C93.0491 116.163 85.4041 124.301 75.2411 125.66Z" stroke="#F9F9F9" stroke-width="3.03661"/>
<path fill-rule="evenodd" clip-rule="evenodd" d="M58.2425 104.47C48.9813 105.711 41.0931 97.9847 31.8739 96.4624C16.4445 93.9155 -3.66495 104.228 -14.0718 92.5335C-23.5677 81.8631 -15.4475 63.3772 -8.84941 50.7011C-3.19347 39.835 9.43833 35.3431 19.3988 28.2307C25.5925 23.808 33.6657 22.485 38.6845 16.7593C47.2261 7.01479 46.8813 -9.86909 58.2425 -16.0835C69.4323 -22.2041 85.6134 -22.1601 95.8032 -14.4834C106.166 -6.67573 103.758 9.55807 108.386 21.6939C112.192 31.6747 123.516 40.4057 120.664 50.7011C117.626 61.6668 102.637 63.7204 94.5332 71.6952C89.0278 77.1139 86.5634 84.7251 80.8311 89.9021C74.0642 96.0135 67.2717 103.26 58.2425 104.47Z" stroke="#F9F9F9" stroke-width="3.03661"/>
</g>
</svg>
