<svg width="179" height="161" viewBox="0 0 179 161" fill="none" xmlns="http://www.w3.org/2000/svg">
<mask id="mask0_9_425" style="mask-type:alpha" maskUnits="userSpaceOnUse" x="0" y="0" width="179" height="161">
<path fill-rule="evenodd" clip-rule="evenodd" d="M98.4847 160.086C86.6375 161.67 76.547 151.805 64.7535 149.862C45.0161 146.611 19.2918 159.776 5.97927 144.846C-6.16794 131.223 4.21947 107.622 12.6598 91.4384C19.895 77.5654 36.0537 71.8305 48.7952 62.7503C56.7183 57.1039 67.0456 55.4147 73.4654 48.1047C84.3921 35.6639 83.9514 14.1081 98.4847 6.1742C112.799 -1.64008 133.497 -1.58391 146.532 8.21699C159.789 18.1851 156.708 38.9108 162.629 54.4047C167.498 67.1472 181.984 78.2942 178.335 91.4384C174.449 105.438 155.274 108.06 144.909 118.241C137.865 125.16 134.714 134.876 127.38 141.487C118.724 149.289 110.035 158.541 98.4847 160.086Z" fill="#C4C4C4"/>
</mask>
<g mask="url(#mask0_9_425)">
<path fill-rule="evenodd" clip-rule="evenodd" d="M87.5259 149.14C75.6774 150.724 65.5852 140.861 53.7902 138.918C34.0501 135.667 8.32235 148.83 -4.99203 133.904C-17.1409 120.284 -6.75209 96.6886 1.68942 80.5089C8.92555 66.6393 25.0865 60.9057 37.8298 51.8276C45.754 46.1825 56.0826 44.4939 62.5037 37.1856C73.4319 24.7478 72.9905 3.19727 87.5259 -4.73466C101.842 -12.547 122.544 -12.4909 135.58 -2.69239C148.839 7.27334 145.757 27.994 151.679 43.484C156.549 56.2235 171.036 67.3676 167.387 80.5089C163.501 94.5052 144.323 97.1266 133.956 107.305C126.912 114.221 123.76 123.937 116.425 130.545C107.768 138.345 99.0781 147.595 87.5259 149.14Z" stroke="#F9F9F9" stroke-width="3.00475"/>
<path fill-rule="evenodd" clip-rule="evenodd" d="M74.8294 124.53C64.5148 125.909 55.7295 117.323 45.4615 115.633C28.2772 112.803 5.88048 124.26 -5.71006 111.267C-16.286 99.4111 -7.24222 78.8723 0.106325 64.7882C6.40558 52.7153 20.4741 47.7244 31.5676 39.8221C38.4657 34.9082 47.4571 33.4382 53.0469 27.0766C62.5599 16.2497 62.176 -2.5095 74.8294 -9.41406C87.2923 -16.2145 105.314 -16.1656 116.662 -7.63632C128.205 1.03864 125.521 19.0755 130.676 32.5592C134.916 43.6486 147.527 53.3493 144.351 64.7882C140.967 76.972 124.273 79.2538 115.248 88.1142C109.116 94.1343 106.372 102.591 99.9874 108.343C92.4505 115.133 84.8857 123.186 74.8294 124.53Z" stroke="#F9F9F9" stroke-width="3.00475"/>
<path fill-rule="evenodd" clip-rule="evenodd" d="M58.0091 103.563C48.8451 104.791 41.0397 97.1455 31.9172 95.6392C16.6497 93.119 -3.2488 103.323 -13.5465 91.7516C-22.9427 81.1931 -14.9077 62.9011 -8.37887 50.358C-2.78227 39.606 9.717 35.1611 19.573 28.1233C25.7017 23.7471 33.6901 22.438 38.6563 16.7724C47.1083 7.13006 46.7671 -9.57669 58.0091 -15.7258C69.0816 -21.7823 85.0929 -21.7387 95.1757 -14.1426C105.43 -6.41683 103.047 9.64664 107.627 21.6551C111.393 31.5312 122.598 40.1706 119.776 50.358C116.77 61.2086 101.938 63.2408 93.9191 71.1319C88.4715 76.4937 86.0329 84.025 80.3607 89.1477C73.6648 95.195 66.9436 102.366 58.0091 103.563Z" stroke="#F9F9F9" stroke-width="3.00475"/>
</g>
</svg>
