<svg width="45" height="50" viewBox="0 0 45 50" fill="none" xmlns="http://www.w3.org/2000/svg">
<path fill-rule="evenodd" clip-rule="evenodd" d="M15.225 6.08665C15.099 6.06458 14.9708 6.06121 14.844 6.07665C12.321 6.37998 8.481 7.89332 6.213 9.25999C6.06321 9.35076 5.92912 9.4704 5.817 9.61332C4.875 10.81 4.02 12.76 3.351 14.6067C2.661 16.5 2.091 18.5 1.77 19.9467C0.708003 24.6467 0.129003 30.29 0.0510029 35.6433C0.0485214 35.9104 0.106278 36.174 0.219003 36.41C1.119 38.32 3.06 40.09 5.004 41.3833C6.969 42.6933 9.264 43.7267 11.112 43.9267C11.3334 43.9501 11.5567 43.9163 11.7644 43.8278C11.9721 43.7393 12.1585 43.5986 12.309 43.4166C12.771 42.86 13.557 41.56 14.151 40.55C14.421 40.09 14.676 39.65 14.874 39.3C16.86 39.7 19.35 39.9333 22.5 39.9333C25.644 39.9333 28.134 39.7 30.12 39.3C30.318 39.6533 30.57 40.09 30.84 40.5466C31.434 41.56 32.22 42.86 32.685 43.4166C32.8355 43.5986 33.0219 43.7393 33.2296 43.8278C33.4373 43.9163 33.6606 43.9501 33.882 43.9267C35.73 43.7267 38.022 42.6933 39.987 41.3833C41.931 40.09 43.872 38.32 44.775 36.41C44.8867 36.1737 44.9434 35.9102 44.94 35.6433C44.865 30.29 44.283 24.6433 43.227 19.9433C42.8027 18.1281 42.2725 16.3454 41.64 14.6067C40.971 12.76 40.116 10.8067 39.177 9.61332C39.064 9.47009 38.9289 9.35044 38.778 9.25999C36.513 7.89332 32.673 6.37998 30.147 6.07665C30.0212 6.06151 29.8941 6.06487 29.769 6.08665C29.2036 6.20755 28.6733 6.47987 28.224 6.87998C27.2177 7.7801 26.4041 8.91754 25.842 10.21C24.7302 10.1131 23.6153 10.0653 22.5 10.0667C21.294 10.0667 20.178 10.1167 19.149 10.2067C18.5866 8.91541 17.773 7.77914 16.767 6.87998C16.3186 6.48036 15.7893 6.20807 15.225 6.08665ZM33.054 38.46C33.4762 39.1824 33.9093 39.897 34.353 40.6033C35.541 40.3033 37.056 39.6033 38.508 38.6366C40.137 37.5533 41.43 36.3033 42.054 35.2467C41.955 30.2267 41.397 25.0133 40.434 20.72C40.0417 19.0478 39.5527 17.4055 38.97 15.8033C38.37 14.1433 37.725 12.7367 37.164 11.93C35.214 10.8067 32.139 9.61999 30.135 9.29665C30.0747 9.33729 30.0166 9.38181 29.961 9.42999C29.7124 9.64728 29.4852 9.89308 29.283 10.1633C29.1647 10.3198 29.0517 10.481 28.944 10.6467C29.859 10.8333 30.675 11.0567 31.398 11.3033C33.45 12.0033 34.929 12.97 35.652 14.04C35.8811 14.3795 35.9795 14.8062 35.9255 15.2263C35.8715 15.6463 35.6695 16.0254 35.364 16.28C35.2127 16.4061 35.0406 16.4978 34.8574 16.5499C34.6742 16.6021 34.4836 16.6136 34.2964 16.5839C33.9183 16.5239 33.5772 16.2995 33.348 15.96C33.171 15.7 32.4 14.9933 30.552 14.36C28.767 13.7533 26.142 13.2667 22.5 13.2667C18.858 13.2667 16.23 13.7533 14.448 14.3633C12.6 14.9967 11.829 15.6967 11.652 15.96C11.5385 16.1281 11.3964 16.2697 11.2337 16.3767C11.071 16.4838 10.8909 16.5542 10.7036 16.5839C10.3256 16.6439 9.94153 16.5346 9.636 16.28C9.48472 16.1539 9.35727 15.996 9.26092 15.8152C9.16457 15.6344 9.10122 15.4343 9.07448 15.2263C9.02046 14.8062 9.11886 14.3795 9.348 14.04C10.071 12.9667 11.55 12.0067 13.602 11.3067C14.322 11.0567 15.138 10.8367 16.05 10.65C15.9422 10.4825 15.8281 10.3202 15.708 10.1633C15.5068 9.89325 15.2805 9.64746 15.033 9.42999C14.9764 9.38171 14.9173 9.33719 14.856 9.29665C12.855 9.61999 9.78 10.8067 7.83 11.93C7.266 12.74 6.624 14.1433 6.021 15.8033C5.382 17.57 4.851 19.4267 4.56 20.72C3.594 25.0133 3.036 30.2267 2.94 35.2467C3.564 36.3067 4.854 37.5533 6.483 38.64C7.938 39.6066 9.45 40.3066 10.641 40.6033C11.0892 39.9004 11.5223 39.1858 11.94 38.46C9.585 37.53 8.322 36.2533 7.5 34.8866C7.39521 34.7116 7.32248 34.5152 7.28597 34.3089C7.24945 34.1026 7.24987 33.8903 7.2872 33.6841C7.32453 33.478 7.39804 33.282 7.50353 33.1075C7.60901 32.9329 7.74442 32.7831 7.902 32.6667C8.05959 32.5502 8.23627 32.4694 8.42197 32.4288C8.60766 32.3883 8.79873 32.3887 8.98426 32.4302C9.16979 32.4717 9.34615 32.5534 9.50328 32.6706C9.6604 32.7878 9.79521 32.9382 9.9 33.1133C10.68 34.42 12.732 36.7333 22.5 36.7333C32.271 36.7333 34.32 34.42 35.1 33.1133C35.3116 32.7597 35.641 32.514 36.0157 32.4302C36.3904 32.3464 36.7797 32.4315 37.098 32.6667C37.4163 32.9018 37.6374 33.2678 37.7128 33.6841C37.7882 34.1005 37.7116 34.533 37.5 34.8866C36.678 36.2533 35.412 37.5333 33.054 38.46ZM12.24 23.3733C12.972 22.5 13.965 22.0067 15 22C16.035 22.0067 17.028 22.5 17.76 23.3733C18.489 24.25 18.9 25.4333 18.9 26.6667C18.9 27.9 18.489 29.0833 17.76 29.96C17.028 30.8333 16.035 31.3267 15 31.3333C14.4797 31.3272 13.9662 31.2021 13.4913 30.9659C13.0165 30.7296 12.5905 30.3872 12.24 29.96C11.5008 29.0605 11.0938 27.8846 11.1 26.6667C11.1 25.4333 11.511 24.25 12.24 23.3733ZM30 22C28.965 22.0067 27.972 22.5 27.24 23.3733C26.511 24.25 26.1 25.4333 26.1 26.6667C26.1 27.9 26.511 29.0833 27.24 29.96C27.972 30.8333 28.965 31.3267 30 31.3333C31.035 31.3267 32.028 30.8333 32.76 29.96C33.489 29.0833 33.9 27.9 33.9 26.6667C33.9 25.4333 33.489 24.25 32.76 23.3733C32.4095 22.9461 31.9835 22.6037 31.5087 22.3674C31.0338 22.1312 30.5203 22.0061 30 22Z" fill="black"/>
</svg>
