<svg width="35" height="34" viewBox="0 0 35 34" fill="none" xmlns="http://www.w3.org/2000/svg">
<g clip-path="url(#clip0_9_524)">
<path fill-rule="evenodd" clip-rule="evenodd" d="M3.82576 18.0599C4.86943 13.8163 4.80109 9.72974 4.92617 5.42537C4.95047 4.58476 4.29013 3.88589 3.45204 3.86056C2.61346 3.83524 1.91361 4.49864 1.88879 5.33926C1.77029 9.4208 1.86601 13.3048 0.875507 17.3358C0.674974 18.151 1.17378 18.9765 1.98807 19.1739C2.80184 19.3765 3.62573 18.8752 3.82576 18.0599Z" fill="white"/>
<path fill-rule="evenodd" clip-rule="evenodd" d="M12.6922 26.2833C19.7726 19.8116 26.4439 11.4866 31.1068 3.08039C31.5134 2.34612 31.2486 1.41937 30.5153 1.01426C29.7821 0.609142 28.8563 0.872491 28.4497 1.60676C23.9408 9.73437 17.4888 17.7861 10.6424 24.04C10.0235 24.6072 9.98054 25.5694 10.5461 26.1872C11.1118 26.805 12.0734 26.8505 12.6922 26.2833Z" fill="white"/>
<path fill-rule="evenodd" clip-rule="evenodd" d="M14.4862 33.3528C20.9619 34.4213 27.6367 32.5983 33.5251 30.0207C34.2933 29.6814 34.6437 28.7852 34.3079 28.0205C33.9717 27.2508 33.0749 26.9013 32.3067 27.2356C26.9439 29.5853 20.8789 31.3272 14.9809 30.355C14.1535 30.2183 13.3711 30.7803 13.2349 31.6058C13.0981 32.4312 13.6592 33.2161 14.4862 33.3528Z" fill="white"/>
</g>
<defs>
<clipPath id="clip0_9_524">
<rect width="33.8686" height="33.1324" fill="white" transform="translate(0.831299 0.824707)"/>
</clipPath>
</defs>
</svg>
